<svg width="198" height="198" viewBox="0 0 198 198" fill="none" xmlns="http://www.w3.org/2000/svg">
<circle cx="99" cy="99" r="99" fill="#DBC4C1"/>
<path d="M36 114.139C36 142.194 59.9607 149 100.175 149C136.467 149 161.268 143.722 161.268 117.75C161.268 93.1667 137.308 91.0833 98.6342 89C70.0494 87.3333 64.1644 85.9444 64.1644 78.4444C64.1644 71.2222 70.0494 68.8611 94.8509 68.8611C121.054 68.8611 131.843 71.5 131.843 82.1944H157.065C157.065 58.1667 134.645 49 97.6533 49C60.9416 49 38.9425 55.8056 38.9425 77.1944C38.9425 99 55.8972 105.667 98.6342 107.611C130.442 109.139 136.047 110.528 136.047 118.583C136.047 126.222 128.06 129.139 101.577 129.139C69.6291 129.139 61.2218 124.417 61.2218 114.139H36Z" fill="#0083A3"/>
</svg>
