<svg width="1432" height="100" viewBox="0 0 1432 100" fill="none" xmlns="http://www.w3.org/2000/svg">
<path d="M0 65.1389C0 93.1944 23.9607 100 64.1755 100C100.467 100 125.268 94.7222 125.268 68.75C125.268 44.1667 101.308 42.0833 62.6342 40C34.0494 38.3333 28.1644 36.9444 28.1644 29.4444C28.1644 22.2222 34.0494 19.8611 58.8509 19.8611C85.0536 19.8611 95.8429 22.5 95.8429 33.1944H121.065C121.065 9.16667 98.6453 0 61.6533 0C24.9416 0 2.94254 6.80556 2.94254 28.1944C2.94254 50 19.8972 56.6667 62.6342 58.6111C94.4417 60.1389 100.047 61.5278 100.047 69.5833C100.047 77.2222 92.0596 80.1389 65.5767 80.1389C33.6291 80.1389 25.2218 75.4167 25.2218 65.1389H0Z" fill="black"/>
<path d="M245.71 1.38889H125.206V22.3611H172.847V98.6111H198.069V22.3611H245.71V1.38889Z" fill="black"/>
<path d="M378.13 49.8611V1.38889H352.908V49.8611C352.908 63.3333 349.125 79.0278 316.477 79.0278C283.829 79.0278 280.045 63.4722 280.045 49.8611V1.38889H254.823V49.8611C254.823 83.75 273.319 100 316.477 100C359.494 100 378.13 83.6111 378.13 49.8611Z" fill="black"/>
<path d="M459.832 1.38889H388.65V98.6111H459.832C485.194 98.6111 507.473 83.0556 507.473 50C507.473 16.9445 485.194 1.38889 459.832 1.38889ZM450.303 77.6389H413.872V22.3611H450.303C469.36 22.3611 482.251 26.3889 482.251 50C482.251 73.6111 469.36 77.6389 450.303 77.6389Z" fill="black"/>
<path d="M541.815 1.38889H516.593V98.6111H541.815V1.38889Z" fill="black"/>
<path d="M578.213 77.6389V1.38889H552.991V98.6111H653.879V77.6389H578.213Z" fill="black"/>
<path d="M768.259 98.6111H796.143L745.419 1.38889H711.37L660.786 98.6111H688.53L699.039 77.9167H757.75L768.259 98.6111ZM708.427 59.3055L728.465 19.8611L748.362 59.3055H708.427Z" fill="black"/>
<path d="M916.791 37.0833C916.791 15.4167 901.518 1.38889 879.238 1.38889H802.172V98.6111H827.394V72.6389H868.029L883.862 98.6111H913.568L895.492 69.7222C908.664 64.5833 916.791 52.9167 916.791 37.0833ZM827.394 22.3611H872.232C879.799 22.3611 891.569 22.3611 891.569 37.0833C891.569 51.6667 879.799 51.6667 872.232 51.6667H827.394V22.3611Z" fill="black"/>
<path d="M985.304 100C1028.32 100 1046.96 82.0833 1046.96 49.8611C1046.96 17.7778 1028.32 0 985.304 0C942.146 0 923.65 17.6389 923.65 49.8611C923.65 82.2222 942.146 100 985.304 100ZM985.304 79.0278C959.101 79.0278 948.872 69.8611 948.872 49.8611C948.872 30 958.961 20.9722 985.304 20.9722C1011.65 20.9722 1021.74 30.1389 1021.74 49.8611C1021.74 69.7222 1011.51 79.0278 985.304 79.0278Z" fill="black"/>
<path d="M1054.74 49.8611C1054.74 82.2222 1073.24 100 1116.39 100C1155.49 100 1175.1 85.1389 1177.63 56.9444H1151.98C1149.6 72.7778 1137.27 79.0278 1116.39 79.0278C1090.89 79.0278 1079.96 69.8611 1079.96 49.8611C1079.96 30 1090.75 20.9722 1116.39 20.9722C1137.41 20.9722 1149.6 27.0833 1151.98 42.7778H1177.63C1175.1 14.7222 1155.49 0 1116.39 0C1073.24 0 1054.74 17.6389 1054.74 49.8611Z" fill="black"/>
<path d="M1291.91 1.38889V39.4444H1212.04V1.38889H1186.82V98.6111H1212.04V60.5555H1291.91V98.6111H1317.13V1.38889H1291.91Z" fill="black"/>
<path d="M1432 21.25V1.38889H1328.31V98.6111H1432V78.75H1353.53V59.0278H1432V40.9722H1353.53V21.25H1432Z" fill="black"/>
</svg>
